<?xml version="1.0" standalone="no"?><!DOCTYPE svg PUBLIC "-//W3C//DTD SVG 1.1//EN" "http://www.w3.org/Graphics/SVG/1.1/DTD/svg11.dtd"><svg t="1524326897214" class="icon" style="" viewBox="0 0 1024 1024" version="1.1" xmlns="http://www.w3.org/2000/svg" p-id="2510" xmlns:xlink="http://www.w3.org/1999/xlink" width="1024" height="1024"><defs><style type="text/css"></style></defs><path d="M596.242 95.149h21.273l206.727 242-5 14.448h-178l-30.879-14.448-26.121-41z" fill="#FFFFFF" p-id="2511"></path><path d="M824.292 341.984c-2.251-6.11-4.713-11.552-8.705-16.233L627.556 104.805c-4.879-5.722-10.832-10.018-18.109-13.376S594.729 87 587.208 87H229.401c-13.705 0-28.835 4.73-39.291 15.186C179.653 112.643 173 125.85 173 139.555v728.317c0 13.705 6.653 27.698 17.109 38.155S215.696 922 229.401 922h546.237c13.705 0 25.815-5.516 36.272-15.973S826 881.577 826 867.871v-507.37c0-6.152 0.544-12.408-1.708-18.517z m-17.669-8.239c-0.103-0.278-0.266-0.745-0.373-0.745H650.373c-12.514 0-25.266-2.053-34.814-11.601-9.548-9.548-14.56-19.34-14.56-31.855V103.636c0 0.556 4.926 0.983 6.544 1.73 6.644 3.067 13.079 7.229 17.534 12.454l172.459 201.637C801 323.517 804.21 322 806.25 333h0.637c-0.111 0-0.145 1.068-0.264 0.745z" fill="#FFE5DC" p-id="2512"></path><path d="M908.608 573.318C898.151 562.861 885.738 558 872.033 558H837V360.502c0-1.402 1.576-2.808 1.686-4.22 0.403-5.172 1.677-12.253-1.356-20.48-2.38-6.459-4.705-13.775-10.405-20.454L639.326 94.38c-6.6-7.745-14.113-11.176-20.823-14.199l-2.507-1.161c-7.494-3.462-14.574-3.907-19.924-3.907-1.621 0-3.231 0.401-4.868 0.448-1.327 0.043-2.65 0.439-3.994 0.439H229.401c-22.681 0-41.862 5.603-53.624 17.359C165.04 104.106 151 118.751 151 139.555v728.317c0 17.514 10.766 37.962 24.782 51.988 14.021 14.01 36.104 23.14 53.619 23.14h546.237c20.804 0 34.352-12.404 45.105-23.146C832.494 908.098 837 890.558 837 867.871V793h35.033c13.705 0 26.118-5.28 36.574-15.737C919.064 766.807 923 753.05 923 739.345V610.819c0-13.706-3.936-27.044-14.392-37.501zM601 108.965l2.744 0.503c5.376 2.427 8.646 3.915 10.482 6.065L799.566 333H644.052c-9.387 0-21.874-5.118-29.29-12.539-7.368-7.364-13.762-18.574-13.762-28.056v-183.44z m204 758.906c0 9.523-0.053 22.464-6.915 29.325C788.51 906.772 782.766 911 775.638 911H229.401c-8.849 0-22.68-6.016-30.461-13.798-7.787-7.787-14.94-20.482-14.94-29.33V139.555c0-7.128 5.364-13.968 14.934-23.538 6.867-6.867 20.943-8.017 30.467-8.017H569v184.405c0 18.111 9.623 37.236 23.105 50.713C605.64 356.653 626.041 365 644.052 365H805v193H432.901c-13.705 0-29.085 4.861-39.542 15.318-10.457 10.456-17.36 23.795-17.36 37.5v128.526c0 13.705 6.903 27.462 17.36 37.918C403.816 787.72 419.196 793 432.901 793H805v74.871z" fill="#D85123" p-id="2513"></path><path d="M582.592 704.179v19.047h-37.293c-7.044 0-12.436-0.366-16.17-1.119-13.121-2.563-22.462-9.863-28.011-21.923-3.629-8.117-5.444-18.147-5.444-30.102 0-14.298 2.777-25.929 8.326-34.893 4.053-6.506 9.471-11.254 16.249-14.246 6.773-2.981 15.496-4.477 26.17-4.477h36.174v19.047h-33.612c-10.141 0-17.556 2.719-22.253 8.158-3.948 4.487-5.92 12.593-5.92 24.329 0 15.804 3.038 26.149 9.121 31.054 4.268 3.42 10.941 5.125 20.009 5.125h32.654zM597.957 723.226v-19.047h48.825c7.787 0 12.965-0.743 15.527-2.238 3.734-2.238 5.601-5.606 5.601-10.083 0-5.23-2.191-9.016-6.563-11.37-2.458-1.381-6.401-2.081-11.845-2.081h-19.847c-12.06 0-20.757-2.186-26.091-6.558-3.31-2.772-5.899-6.244-7.766-10.407s-2.798-8.64-2.798-13.44c0-7.468 2.186-14.309 6.563-20.49 4.262-5.983 11.092-9.497 20.485-10.564 3.201-0.324 7.949-0.481 14.246-0.481h52.983v19.047H639.42c-7.154 0.105-11.903 0.429-14.246 0.962-4.806 1.171-7.207 4.801-7.207 10.878 0 5.125 2.029 8.545 6.082 10.25 2.667 1.276 7.149 1.914 13.446 1.914h17.127c8.749 0 15.26 0.753 19.533 2.249 7.573 2.563 12.802 7.039 15.684 13.44 2.244 5.125 3.363 10.616 3.363 16.484 0 6.516-1.496 12.332-4.482 17.457-4.163 7.248-10.407 11.631-18.728 13.116-4.058 0.648-10.193 0.962-18.409 0.962h-53.626zM709.199 723.226v-19.047h48.825c7.787 0 12.965-0.743 15.527-2.238 3.734-2.238 5.601-5.606 5.601-10.083 0-5.23-2.191-9.016-6.563-11.37-2.458-1.381-6.401-2.081-11.845-2.081h-19.847c-12.06 0-20.757-2.186-26.091-6.558-3.31-2.772-5.899-6.244-7.766-10.407s-2.798-8.64-2.798-13.44c0-7.468 2.186-14.309 6.563-20.49 4.262-5.983 11.092-9.497 20.485-10.564 3.201-0.324 7.949-0.481 14.246-0.481h52.983v19.047h-47.857c-7.154 0.105-11.903 0.429-14.246 0.962-4.806 1.171-7.207 4.801-7.207 10.878 0 5.125 2.029 8.545 6.082 10.25 2.667 1.276 7.149 1.914 13.446 1.914h17.128c8.749 0 15.26 0.753 19.533 2.249 7.573 2.563 12.802 7.039 15.684 13.44 2.244 5.125 3.363 10.616 3.363 16.484 0 6.516-1.496 12.332-4.482 17.457-4.163 7.248-10.407 11.631-18.728 13.116-4.058 0.648-10.193 0.962-18.409 0.962h-53.627z" fill="#FFFFFF" p-id="2514"></path><path d="M436.106 180.561c4.32 1.255 7.939 3.41 10.888 6.422 2.928 3.033 4.927 6.757 5.983 11.171 1.046 4.393 1.569 11.338 1.569 20.815 0 10.982 0.45 18.158 1.35 21.505 1.317 4.811 3.336 8.242 6.034 10.313 2.699 2.07 6.799 3.242 12.321 3.556v21.588c-4.383 0.23-7.677 0.9-9.894 1.966-2.217 1.088-4.121 2.908-5.711 5.46-1.589 2.531-2.719 5.731-3.378 9.56-0.482 2.887-0.722 7.865-0.722 14.956 0 11.632-0.523 19.748-1.569 24.371-1.056 4.624-2.991 8.326-5.805 11.108-2.814 2.804-6.955 5-12.416 6.611-3.661 1.088-9.413 1.632-17.279 1.632h-4.769v-21.61c6.422 0 10.627-0.397 12.593-1.214 1.988-0.795 3.441-1.966 4.372-3.494 0.931-1.526 1.402-4.12 1.444-7.781 0.02-3.661 0.282-10.648 0.753-20.962 0.314-6.254 1.109-11.233 2.437-14.998 1.318-3.745 3.065-6.924 5.261-9.518 2.197-2.616 5-4.916 8.41-6.883-4.435-2.887-7.677-5.711-9.707-8.472-2.823-3.954-4.748-8.996-5.762-15.104-0.66-4.204-1.141-13.43-1.444-27.718-0.052-4.497-0.461-7.489-1.214-8.995-0.742-1.506-2.102-2.656-4.047-3.452-1.946-0.815-6.318-1.234-13.096-1.234v-21.484h4.769c8.096 0.002 14.309 0.63 18.629 1.885zM320.099 349.649c-4.309-1.276-7.959-3.431-10.93-6.422-2.959-3.012-4.958-6.714-5.983-11.108-1.014-4.414-1.526-11.359-1.526-20.835 0-11.046-0.482-18.199-1.444-21.505-1.317-4.791-3.316-8.242-5.972-10.293-2.678-2.07-6.778-3.262-12.29-3.556v-21.588c4.383-0.251 7.677-0.9 9.905-1.988 2.207-1.087 4.132-2.886 5.753-5.439 1.611-2.551 2.73-5.753 3.327-9.581 0.481-2.886 0.722-7.886 0.722-15.019 0-11.652 0.533-19.768 1.621-24.35 1.077-4.581 3.024-8.284 5.847-11.066 2.814-2.782 6.924-5 12.321-6.611 3.661-1.087 9.424-1.611 17.269-1.611h4.769v21.484c-6.652 0-10.919 0.377-12.812 1.13-1.894 0.753-3.285 1.903-4.185 3.431-0.9 1.527-1.35 4.142-1.35 7.866 0 3.786-0.271 10.94-0.815 21.505-0.293 5.941-1.077 10.752-2.333 14.434-1.266 3.682-2.866 6.736-4.822 9.141-1.945 2.385-4.927 4.874-8.943 7.468 3.536 2.03 6.433 4.414 8.682 7.133 2.249 2.741 3.964 6.046 5.177 9.958 1.192 3.891 1.966 9.121 2.333 15.647 0.418 9.958 0.628 16.318 0.628 19.079 0 3.953 0.481 6.714 1.443 8.284 0.952 1.549 2.416 2.741 4.362 3.536 1.945 0.816 6.17 1.214 12.634 1.214v21.61h-4.769c-8.096-0.001-14.298-0.651-18.619-1.948z" fill="#D85123" p-id="2515"></path></svg>